<svg xmlns:dc="http://purl.org/dc/elements/1.1/" xmlns:cc="http://creativecommons.org/ns#" xmlns:rdf="http://www.w3.org/1999/02/22-rdf-syntax-ns#" xmlns:svg="http://www.w3.org/2000/svg" xmlns="http://www.w3.org/2000/svg" xmlns:sodipodi="http://sodipodi.sourceforge.net/DTD/sodipodi-0.dtd" xmlns:inkscape="http://www.inkscape.org/namespaces/inkscape" width="100" height="100" id="svg2" version="1.1" inkscape:version="0.48.2 r9819" sodipodi:docname="headlamp-f.svg" viewBox="5.0 -10.0 100 135.0">
  <title id="title4326">Camping Headlamp</title>
  <defs id="defs4">
    <inkscape:perspective sodipodi:type="inkscape:persp3d" inkscape:vp_x="0 : 50 : 1" inkscape:vp_y="0 : 1000 : 0" inkscape:vp_z="100 : 50 : 1" inkscape:persp3d-origin="50 : 33.333333 : 1" id="perspective3319"/>
    <inkscape:path-effect effect="skeletal" id="path-effect3185" is_visible="true" pattern="M 0,5 C 0,2.24 2.24,0 5,0 7.76,0 10,2.24 10,5 10,7.76 7.76,10 5,10 2.24,10 0,7.76 0,5 z" copytype="single_stretched" prop_scale="1" scale_y_rel="false" spacing="0" normal_offset="0" tang_offset="0" prop_units="false" vertical_pattern="false" fuse_tolerance="0"/>
    <inkscape:path-effect effect="skeletal" id="path-effect3181" is_visible="true" pattern="m -3.0304576,961.7816 c 0,-2.76 2.23999996,-5 5,-5 2.76,0 5,2.24 5,5 0,2.76 -2.24,5 -5,5 -2.76000004,0 -5,-2.24 -5,-5 z" copytype="single_stretched" prop_scale="1" scale_y_rel="false" spacing="0" normal_offset="0" tang_offset="0" prop_units="false" vertical_pattern="false" fuse_tolerance="0"/>
    <inkscape:path-effect effect="skeletal" id="path-effect3177" is_visible="true" pattern="M 0,5 C 0,2.24 2.24,0 5,0 7.76,0 10,2.24 10,5 10,7.76 7.76,10 5,10 2.24,10 0,7.76 0,5 z" copytype="single_stretched" prop_scale="1" scale_y_rel="false" spacing="0" normal_offset="0" tang_offset="0" prop_units="false" vertical_pattern="false" fuse_tolerance="0"/>
    <inkscape:path-effect effect="skeletal" id="path-effect3173" is_visible="true" pattern="M 0,5 C 0,2.24 2.24,0 5,0 7.76,0 10,2.24 10,5 10,7.76 7.76,10 5,10 2.24,10 0,7.76 0,5 z" copytype="single_stretched" prop_scale="1" scale_y_rel="false" spacing="0" normal_offset="0" tang_offset="0" prop_units="false" vertical_pattern="false" fuse_tolerance="0"/>
  </defs>
  <sodipodi:namedview id="base" pagecolor="#ffffff" bordercolor="#666666" borderopacity="1.0" inkscape:pageopacity="0.0" inkscape:pageshadow="2" inkscape:zoom="2.8" inkscape:cx="29.259436" inkscape:cy="39.847925" inkscape:document-units="px" inkscape:current-layer="layer1" showgrid="false" inkscape:window-width="1280" inkscape:window-height="709" inkscape:window-x="0" inkscape:window-y="0" inkscape:window-maximized="1"/>
  <metadata id="metadata7">
    <rdf:RDF>
      <cc:Work rdf:about="">
        <dc:format>image/svg+xml</dc:format>
        <dc:type rdf:resource="http://purl.org/dc/dcmitype/StillImage"/>
        <dc:title>Camping Headlamp</dc:title>
        <dc:date>2014-04-24</dc:date>
        <dc:creator>
          <cc:Agent>
            <dc:title>Alec Dhuse</dc:title>
          </cc:Agent>
        </dc:creator>
        <dc:subject>
          <rdf:Bag>
            <rdf:li>Camping</rdf:li>
            <rdf:li>Headlamp</rdf:li>
          </rdf:Bag>
        </dc:subject>
        <cc:license rdf:resource="http://creativecommons.org/licenses/by/3.0/"/>
      </cc:Work>
      <cc:License rdf:about="http://creativecommons.org/licenses/by/3.0/">
        <cc:permits rdf:resource="http://creativecommons.org/ns#Reproduction"/>
        <cc:permits rdf:resource="http://creativecommons.org/ns#Distribution"/>
        <cc:requires rdf:resource="http://creativecommons.org/ns#Notice"/>
        <cc:requires rdf:resource="http://creativecommons.org/ns#Attribution"/>
        <cc:permits rdf:resource="http://creativecommons.org/ns#DerivativeWorks"/>
      </cc:License>
    </rdf:RDF>
  </metadata>
  <g inkscape:label="Layer 1" inkscape:groupmode="layer" id="layer1" transform="translate(0,-952.36218)">
    <path sodipodi:nodetypes="cccccsssccssccssssssccccsssccsscccsccc" style="fill:#000000;fill-opacity:1;stroke:none" d="m 52.136119,1026.8923 c -0.256485,-0.2321 -0.418458,-0.1601 -5.620696,-0.1723 -12.132513,0.1624 -23.944586,-5.6054 -32.588528,-13.1809 -5.4854308,-4.8344 -7.9921516,-9.0046 -8.71141,-14.4921 -1.2516683,-7.81553 3.1381815,-12.77596 8.281157,-15.28693 6.612486,-3.17551 16.391768,-6.67956 25.62892,-9.18321 7.642789,-2.07152 13.474685,-2.92623 20.131926,-2.9505 4.674824,-0.0171 7.709753,0.28431 11.484664,1.1404 9.046048,2.05148 15.856281,6.53079 20.302162,13.35336 6.001144,8.62117 3.511239,15.34628 3.06838,23.96798 -0.0061,1.4927 -0.202839,0.7816 -0.387973,-1.4046 -0.148951,-1.7586 -0.242759,-2.1998 -0.917081,-4.3119 -0.413138,-1.2942 -0.925215,-2.775 -1.137936,-3.2909 l -0.386777,-0.9379 0.878698,-0.96521 c 2.142573,-2.35365 2.115009,-3.70825 -0.170418,-8.37506 -1.192323,-2.4347 -1.913972,-3.62957 -3.270311,-5.4148 -2.544749,-3.34941 -5.752138,-5.96217 -10.057155,-8.19261 -4.353777,-2.25569 -8.159982,-3.4284 -13.191023,-4.06422 -2.167907,-0.27398 -9.094783,-0.23446 -11.890002,0.0678 -9.580347,1.0361 -17.463855,3.64124 -28.576525,7.34374 -15.828057,6.84123 -16.9319472,9.79867 -14.555729,15.76112 0.470855,0.99891 1.479716,2.58088 2.086901,3.27245 9.006191,-6.36236 23.239561,-11.70575 32.306703,-14.19401 11.629636,-3.07524 24.51298,-2.6655 31.850286,1.01298 2.37574,1.19105 4.90351,3.29647 6.167857,5.13731 0.475145,0.69179 1.526415,2.72472 1.526415,2.95177 0,0.16638 -0.191739,0.18368 -0.764989,0.069 -1.655875,-4.32309 -6.462228,-7.33306 -10.652115,-8.79198 -6.35896,-2.169 -12.760783,-2.35424 -21.955957,-0.63534 -13.57861,2.53831 -30.417746,9.11176 -37.032669,14.45632 l -0.934385,0.75496 c 2.184181,2.9247 5.010482,4.4191 7.215495,5.7839 4.226268,2.6127 8.322523,4.3648 13.119233,5.5823 4.519517,1.1265 10.891438,2.0016 14.211506,1.826 l 0.930322,-0.049 c -0.01771,4.9443 2.674096,9.3175 3.611054,13.4122 z" id="path3369" inkscape:connector-curvature="0"/>
    <path style="fill:#000000;fill-opacity:1;stroke:none" d="m 68.344527,1005.3994 c -1.010293,-0.3456 -4.072592,-2.4453 -4.338913,-2.975 -0.193181,-0.3841 -0.15013,-0.5041 0.291833,-0.813 1.537658,-1.075 6.0737,-2.70926 9.308222,-3.35384 2.180394,-0.43443 6.531589,-0.44156 7.255379,-0.0122 0.92779,0.5508 2.166354,2.82851 1.89129,3.47801 -0.151347,0.3574 -1.136522,0.6187 -2.929203,0.7772 -2.415164,0.2134 -4.402341,0.7675 -6.84982,1.9103 -2.458161,1.1478 -3.507585,1.3719 -4.628788,0.9882 z" id="path3392" inkscape:connector-curvature="0"/>
    <path style="fill:#000000;fill-opacity:1;stroke:none" d="m 59.202625,1032.8245 c -1.210277,-0.4304 -2.784024,-1.668 -3.64442,-2.8661 -1.103762,-1.537 -2.021091,-3.6604 -3.363063,-7.7849 -3.348806,-10.2924 -2.915179,-15.1004 1.694662,-18.79 1.718678,-1.3755 9.343535,-5.35878 12.241357,-6.39487 2.752225,-0.98404 5.975732,-1.58347 10.230918,-1.90249 4.169208,-0.31258 6.044929,-0.18714 8.287167,0.55419 3.165728,1.04667 4.760961,2.87559 6.255844,7.17227 1.544804,4.4402 1.77621,5.9696 1.593841,10.5341 -0.244785,6.1268 -0.934972,8.2113 -3.314645,10.0113 -2.931816,2.2176 -17.114773,7.8664 -23.55702,9.3823 -1.864696,0.4388 -5.300992,0.4838 -6.424641,0.084 z m 13.392566,-7.7573 c 6.595419,-1.0704 14.101396,-5.9049 16.625517,-10.7081 1.482629,-2.8213 1.353035,-4.9198 -0.401729,-6.5052 -1.275924,-1.1527 -3.074463,-1.679 -5.737765,-1.679 -5.75223,0 -12.103622,2.75 -16.584207,7.1805 -2.723104,2.6926 -3.704881,4.4324 -3.831601,6.79 -0.112687,2.0965 0.573482,3.2724 2.459179,4.2147 0.758304,0.3789 1.663472,0.7335 2.011483,0.788 1.292645,0.2026 3.955751,0.1631 5.459123,-0.081 z m 0.599185,-19.5992 c 2.971138,-1.3459 3.84639,-1.6182 7.045801,-2.1922 2.009276,-0.3604 3.80941,-0.8095 4.0003,-0.9978 0.484967,-0.4785 0.194417,-1.7932 -0.712266,-3.22289 -1.225651,-1.93264 -1.62516,-2.0823 -5.43654,-2.03655 -2.798035,0.0336 -3.758669,0.15857 -6.273671,0.81625 -4.77956,1.24985 -9.969935,3.73729 -9.969935,4.77799 0,0.7604 3.065538,3.2888 5.102142,4.2081 1.288897,0.5818 2.600855,0.2976 6.244169,-1.3529 z" id="path4299" inkscape:connector-curvature="0"/>
  </g>
<text x="0" y="117.5" font-size="5.0" font-weight="bold" font-family="Helvetica Neue, Helvetica, Arial-Unicode, Arial, Sans-serif" fill="#000000">Created by Alec Dhuse</text><text x="0" y="122.5" font-size="5.0" font-weight="bold" font-family="Helvetica Neue, Helvetica, Arial-Unicode, Arial, Sans-serif" fill="#000000">from the Noun Project</text></svg>